<svg xmlns="http://www.w3.org/2000/svg" width="64" height="65">
    <g fill="none" fill-rule="evenodd">
        <ellipse cx="32" cy="32.011" fill="#F2F6F7" rx="32" ry="32.011"/>
        <path fill="#FFF" d="M43.275 37.62l-8.898 2.57a.632.632 0 0 0 .175 1.238 2.316 2.316 0 0 1 2.301 2.542c-.112 1.168-1.178 2.083-2.428 2.083H23.356a.632.632 0 0 1-.632-.632V18.895c0-.348.284-.632.632-.632h19.288c.348 0 .631.284.631.632V37.62z"/>
        <path fill="red" d="M22.285 46.976a1.464 1.464 0 0 0 .272 1.69l.358.358a64.004 64.004 0 0 1 3.697-4.012c.103-.103.21-.153.313-.248l-2.3-2.3c-1.337 2.418-2.117 4.07-2.34 4.512zm12.597 6.306a66.593 66.593 0 0 1-4.006 3.703l.485.485a1.46 1.46 0 0 0 1.702.266c.757-.39 1.948-.95 4.476-2.358l-2.408-2.409c-.096.104-.146.21-.25.313zm-.779-7.489c-1.057-1.056-4.028-.11-5.424 1.286-4.67 4.67-6.778 7.98-7.725 9.935a1.461 1.461 0 0 0 1.955 1.952c1.91-.928 5.18-3.027 9.906-7.751 1.534-1.536 2.292-4.418 1.289-5.42l-.001-.002zm-14.54-11.328L15.428 38.6a1.462 1.462 0 0 0 1.412 2.446c2.235-.599 4.202-.852 5.526-.513 1.884-3.349 3.908-6.432 6.052-9.233-1.24-.795-5.338-.352-8.855 3.165zm20.183 30.281a1.46 1.46 0 0 0 1.69-.272l4.136-4.135c3.202-3.202 3.765-7.334 3.039-8.644-3.124 2.354-6.288 4.342-9.24 6.006.204 1.15.068 2.266-.413 5.525a1.46 1.46 0 0 0 .788 1.52zm4.279-35.08a4.391 4.391 0 0 0 0 6.202 4.39 4.39 0 0 0 6.203 0 4.39 4.39 0 0 0 0-6.202 4.39 4.39 0 0 0-6.203 0zm20.791-13.24a1.46 1.46 0 0 0-1.348-1.348c-3.591-.27-7.168.171-10.673 1.243.264 2.409 1.51 5.015 3.636 7.142 2.152 2.152 4.83 3.397 7.281 3.63.944-3.309 1.392-6.853 1.104-10.667z"/>
        <path d="M54.364 25.53c-2.433-2.432-3.919-5.35-4.395-8.191-8.78 3.6-17.184 11.463-23.825 22.509l3.3 3.3c2.254-.916 4.99-1.158 6.726.577 1.738 1.739 1.492 4.474.577 6.726l3.408 3.407c8.499-5.121 18.393-13.191 22.6-23.927-2.91-.44-5.919-1.928-8.391-4.4zm-2.068 12.406c-2.85 2.85-7.488 2.85-10.338 0-2.85-2.85-2.85-7.488 0-10.338 2.85-2.85 7.488-2.85 10.338 0 2.85 2.85 2.85 7.488 0 10.338z"/>
        <g fill="#000" fill-rule="nonzero">
            <path d="M23.356 47.316h11.07c1.893 0 3.512-1.417 3.684-3.227a3.594 3.594 0 0 0-1.458-3.241l7.43-2.145a.632.632 0 0 0 .457-.607V18.895c0-1.045-.85-1.895-1.895-1.895H23.356c-1.045 0-1.895.85-1.895 1.895V45.42c0 1.045.85 1.895 1.895 1.895zm19.92-9.695l-8.9 2.569a.632.632 0 0 0 .176 1.238 2.316 2.316 0 0 1 2.301 2.542c-.112 1.168-1.178 2.083-2.428 2.083H23.356a.632.632 0 0 1-.632-.632V18.895c0-.348.284-.632.632-.632h19.288c.348 0 .631.284.631.632V37.62z"/>
            <path d="M37.11 45.879a.63.63 0 0 0 .458-.197l6.797-7.151a.631.631 0 0 0-.633-1.042l-9.355 2.7a.632.632 0 0 0 .175 1.24c.602 0 1.469.336 1.95 1.075.44.676.45 1.536.03 2.488a.631.631 0 0 0 .578.887zm4.735-6.53l-3.761 3.957a3.322 3.322 0 0 0-.523-1.491 3.617 3.617 0 0 0-.928-.962l5.212-1.505z"/>
            <path d="M36.744 46.332a.63.63 0 0 0 .46-.199l7.163-7.604a.632.632 0 1 0-.92-.866l-7.163 7.604a.632.632 0 0 0 .46 1.065z"/>
        </g>
    </g>
</svg>
